<svg xmlns="http://www.w3.org/2000/svg" width="512" height="508" version="1.1"><polyline fill="none" stroke="#000" stroke-width="1" points="107 0 106.5 4 105.5 8 105 12 104.5 16 104 20 103.5 24 103 28 103 32 102.5 36 102.5 40 102.5 44 102 48 102.5 52 102.5 56 102.5 60"/><polyline fill="none" stroke="#000" stroke-width="1" points="106.5 68.5 110.5 68.5 114.5 68.5 118.5 68 122.5 67.5 126.5 67.5 129.5 65 125.5 65.5 121.5 66 117.5 66.5 113.5 66.5 109.5 66.5 105.5 69 101.5 69 97.5 68"/><polyline fill="none" stroke="#000" stroke-width="1" points="90 67 89.5 71 89 75 88.5 79 88 83 88 87 89.5 90 90 86 92 82 92 78 89.5 75.5"/><polyline fill="none" stroke="#000" stroke-width="1" points="94 80 98 84 96.5 88 92.5 84 92 84 96 88 97.5 92 98 96 97.5 100 98.5 104"/><polyline fill="none" stroke="#000" stroke-width="1" points="107.5 99.5 108 103.5 108.5 107.5 109.5 111.5 110 115.5 111 119.5 112 123.5 114 127.5 115.5 131.5 118 135.5 121.5 140 125.5 144 131.5 150 135.5 151.5 139.5 153 143.5 154 147.5 155 151.5 155.5 155.5 156.5 159.5 157 163.5 157.5 167.5 157 171.5 157 175.5 157 179.5 156 183.5 155.5 187.5 155 185 151.5 189 150.5 193 148.5 197 147 197.5 146.5"/><polyline fill="none" stroke="#000" stroke-width="1" points="223.5 129 219.5 135 216 140.5 212.5 146.5 208.5 150.5 206.5 152.5 210.5 148.5 214 144 216.5 140 219 136 222.5 132 224.5 128 227 124 228 120 230 116 231 112 231.5 108 232.5 104 234 100 235 96 236 92 234.5 95"/><polyline fill="none" stroke="#000" stroke-width="1" points="232.5 85.5 236.5 85 236 84 232 84"/><polyline fill="none" stroke="#000" stroke-width="1" points="219.5 85 215.5 80.5 211.5 77.5 207.5 75.5 203.5 74 199.5 72.5 195.5 71.5 191.5 71 187.5 70 183.5 69.5 179.5 69 175.5 68 171.5 67.5 167.5 67 163.5 67 159.5 66.5 155.5 67 151.5 66.5 147.5 67 143.5 67 139.5 67 135.5 68 131.5 68.5 127.5 69.5 123.5 70.5 119.5 72.5 115.5 75.5 111.5 82.5"/><polyline fill="none" stroke="#000" stroke-width="1" points="116 78 116 82 113 84.5 111.5 88.5 114 92.5 114 96.5 112.5 100.5 111.5 101 109.5 97"/><polyline fill="none" stroke="#000" stroke-width="1" points="109 118.5 113 129 117 136 120.5 141 124.5 142.5 128.5 145"/><polyline fill="none" stroke="#000" stroke-width="1" points="121 141.5 125 146 129 149 133 149 137 150.5 141.5 150.5 145.5 152.5 149.5 153.5 153.5 153.5 157.5 154.5 161.5 155 165.5 154 169.5 155 173.5 154.5 177.5 154.5 181.5 153.5 185.5 153 189.5 153 193.5 152 197.5 149.5 201.5 145.5 205.5 142.5 209.5 138 213.5 133 217.5 127"/><polyline fill="none" stroke="#000" stroke-width="1" points="215.5 118 216.5 114 216.5 113"/><polyline fill="none" stroke="#000" stroke-width="1" points="214.5 100 211 96"/><polyline fill="none" stroke="#000" stroke-width="1" points="193.5 89 190 85"/><polyline fill="none" stroke="#000" stroke-width="1" points="188.5 75 184.5 74.5 180.5 74.5 176.5 74 171.5 75.5 167.5 76.5 163.5 77.5 159.5 78 155.5 81 150.5 82.5 146.5 87 149.5 84 153.5 82 159.5 78"/><polyline fill="none" stroke="#000" stroke-width="1" points="161.5 88 162.5 86 161.5 90 162 94 163.5 98 167 102"/><polyline fill="none" stroke="#000" stroke-width="1" points="162 93.5 166 100.5 170 102.5 174 103.5 178 102.5 182 100 186 95.5"/><polyline fill="none" stroke="#000" stroke-width="1" points="181.5 101 185.5 97 187.5 93 187 91 187.5 87 189 83 189 79 187 75 188.5 73.5 181.5 71.5 177.5 72 173.5 70.5 174.5 74 173.5 78 175.5 81.5 172 84 172.5 84 178.5 85.5 182.5 85.5 186.5 85.5 190.5 85 194.5 89.5"/><polyline fill="none" stroke="#000" stroke-width="1" points="201 73 210 77 215.5 81 219 85 221.5 89 223.5 93 225.5 97 223.5 101.5 221.5 105.5 223.5 108 223 112 222 116 220.5 120 219 124 217 128 214.5 132 211 136 208 140 204.5 144 198.5 148 192.5 152"/><polyline fill="none" stroke="#000" stroke-width="1" points="209.5 200 212 204 217.5 208 223.5 212 222.5 211 218.5 208 214.5 206.5 210.5 203"/><polyline fill="none" stroke="#000" stroke-width="1" points="222.5 194.5 226.5 194.5 230.5 196 234.5 198.5"/><polyline fill="none" stroke="#000" stroke-width="1" points="231 255.5 235 257 239 257.5 243 260 243 260.5 236 256.5"/><polyline fill="none" stroke="#000" stroke-width="1" points="224 272.5 220 272 216 273 212 273.5 208 274.5 211 273 206.5 274 202.5 274.5 198.5 274 194.5 273.5 190.5 274.5"/><polyline fill="none" stroke="#000" stroke-width="1" points="262 279 266 274.5 267 274 262.5 278 263 282"/><polyline fill="none" stroke="#000" stroke-width="1" points="358.5 265.5 362.5 256 366.5 247.5 370.5 237.5"/><polyline fill="none" stroke="#000" stroke-width="1" points="359 266.5 363 269.5 367 273 371 277.5 375 279.5 379 281 383 283 387 285 391 287 395 289.5 399 293 403 295.5 407 299.5 411 304 415 311 419 312.5 420.5 317 425.5 324 429.5 329 433.5 333.5 437.5 336.5 441.5 339.5 445.5 339 449 339.5 452.5 340.5 456.5 341 460.5 342.5 464.5 343 468.5 343.5 472.5 343.5 476.5 343.5 480.5 342.5 484.5 342.5 488.5 343 492.5 342 496.5 342.5 500.5 343 504.5 343 508.5 343"/><polyline fill="none" stroke="#000" stroke-width="1" points="369 313 365 306.5 361 302"/><polyline fill="none" stroke="#000" stroke-width="1" points="366.5 327.5 366.5 331.5 365.5 335.5 362 339.5 360.5 343.5 358 347.5 356.5 351.5 354 355.5 351.5 359.5 350 363.5 348 367.5 346.5 371.5 345 375.5 343 379.5 341.5 383.5 340 387.5 338 391.5 336 395.5 334.5 399.5 333.5 403.5 332 407.5 331.5 411.5 330 415.5 328 419.5 327 423.5 326.5 427.5 325 431.5 324 435.5 321.5 439.5 318 443.5 315.5 446.5 312 450.5 307 454.5 303.5 458.5 300.5 462.5 297 465.5 296 469.5 294 473.5 291 477 293.5 480 288 479.5 288.5 483.5 284.5 489.5"/><polyline fill="none" stroke="#000" stroke-width="1" points="287 479 283.5 483 280.5 487 282.5 484 286.5 479.5 293 477.5"/><polyline fill="none" stroke="#000" stroke-width="1" points="302 479.5 304.5 475 307 471 311.5 467 314 463 314 459 317 456 318.5 452 319.5 448 323 444 319.5 448"/><polyline fill="none" stroke="#000" stroke-width="1" points="321 440 316.5 445.5 313.5 449.5 308.5 453.5 304.5 457.5 300.5 462"/><polyline fill="none" stroke="#000" stroke-width="1" points="307 464 306.5 468 299.5 471.5 296 475.5 292.5 479.5 293 479 296 475.5 300 471 305 469 309 465 311 469.5 310.5 473.5 306.5 477.5 309.5 474"/><polyline fill="none" stroke="#000" stroke-width="1" points="296.5 453 292.5 456.5 297.5 451.5 298 447.5 299.5 443.5 298.5 444.5"/><polyline fill="none" stroke="#000" stroke-width="1" points="293 447.5 293 447.5 293 451.5 291.5 455.5 290 459.5 289.5 463.5 287 467.5 285 471.5 281.5 475 279.5 479 277.5 483 274.5 487 275.5 488.5 274 493.5"/><polyline fill="none" stroke="#000" stroke-width="1" points="273.5 487.5 277.5 483 281.5 475 286 470.5"/><polyline fill="none" stroke="#000" stroke-width="1" points="277.5 469.5 278 469 277 473 275.5 477 273.5 481 272 485 270 489 267 492 264.5 494.5"/><polyline fill="none" stroke="#000" stroke-width="1" points="260.5 485.5 258.5 481.5"/><polyline fill="none" stroke="#000" stroke-width="1" points="250.5 484.5 254.5 484 258.5 480 255 483.5 251.5 486 249.5 490 246.5 495 250.5 489 254.5 487 254 491 250 495.5 249 497 253 493.5 257 493.5 261 492.5 265 493 269.5 490.5 273 481.5"/><polyline fill="none" stroke="#000" stroke-width="1" points="270.5 476 266.5 479 262.5 484.5 259 483.5 264.5 482.5 267.5 478.5 269.5 474.5"/><polyline fill="none" stroke="#000" stroke-width="1" points="250 480.5 246 481.5 242 485 245 484 247 480"/><polyline fill="none" stroke="#000" stroke-width="1" points="246.5 495 242.5 495.5 240 492 236 489.5 232 484.5 227 485.5 227 488 223 491 219 493.5 225 490 227 486"/><polyline fill="none" stroke="#000" stroke-width="1" points="223 498 228 494 224.5 496.5 220.5 498.5 216.5 494"/><polyline fill="none" stroke="#000" stroke-width="1" points="217 488 214.5 484 214 481 210 479 206 476.5 206 476.5 212.5 480.5 214.5 484.5 217.5 488.5 218 492.5 219.5 496.5 219 497.5"/><polyline fill="none" stroke="#000" stroke-width="1" points="205.5 476 204.5 476.5 200.5 477 196.5 475.5 192.5 473 188.5 468.5 184 468.5 188 472.5 192 476.5 196 479.5"/><polyline fill="none" stroke="#000" stroke-width="1" points="193.5 471 191.5 469 191.5 465"/><polyline fill="none" stroke="#000" stroke-width="1" points="194.5 473.5 189.5 469.5 187 465 186.5 461 184.5 456.5"/><polyline fill="none" stroke="#000" stroke-width="1" points="178.5 454 180 451.5 178.5 447.5 174.5 446.5 173 442.5 170 438 167.5 434 164 431.5 162.5 427.5 160 425 156 421.5 158 417 161 421 163.5 425 166 429 169.5 433 173 437 176.5 441 180.5 445 181.5 449 182 453 182 457 182 461 179 463 183.5 467 185 471 187.5 472.5 191.5 476.5 194.5 480.5 196.5 482 200.5 479.5 204.5 479.5"/><polyline fill="none" stroke="#000" stroke-width="1" points="225 480.5 218.5 476.5 212 472.5 204.5 468.5 199.5 464.5 195 460.5 190 456.5 186.5 452.5 183 448.5 179 448.5 174 443 169.5 437 165.5 432"/><polyline fill="none" stroke="#000" stroke-width="1" points="159.5 428 163.5 434 167.5 442.5 171.5 445 175.5 449.5 178 450"/><polyline fill="none" stroke="#000" stroke-width="1" points="184 460.5 184 456 177.5 456.5 177 454.5 178 451.5 174 449 171 445 169 441 166.5 441 164.5 437 162.5 433 160 429 159.5 425 157 421 154.5 417 152.5 413 150.5 409 150.5 409 154.5 417 158.5 417.5 162.5 423 166.5 429 170.5 433.5 174.5 438 178.5 442.5 182.5 447 186.5 452 190.5 456.5 194.5 459.5 198.5 463 202.5 466.5 206.5 469.5 210.5 471.5 214.5 473.5 218.5 476 222.5 479 226.5 480.5 233 482 237 479 241 477 245 474 249 471.5 253 469 257 466.5 261 463.5 265 460.5 269 457.5 273 454.5 277 451.5 281 448.5 285 445 289 442 293 438.5 297 435 301 431.5 305 428 309 424.5 313 419.5 317 415 321 410.5 325 406 329 401 333 395 337 389.5 337 389.5 334.5 393.5 331.5 397.5 328.5 401.5 325.5 405.5 322 409.5 318 413.5 315 417.5 311 421.5 307.5 425.5 303.5 429.5 299.5 433.5 294 437.5 289.5 441.5 284.5 445.5 279.5 449.5 274 453.5 269 457.5 263.5 461.5 258.5 465.5 252.5 469.5 246.5 473.5 240 477.5 234 481.5 233.5 485.5 235.5 489.5 241.5 493 244 497.5 240.5 500 238.5 502 240.5 502 244.5 502 248.5 501 252.5 500.5 256.5 499.5 260.5 498 264.5 497 268.5 496 272.5 494.5 276.5 493 280.5 491.5 284.5 489.5 288.5 487 292.5 485.5 296.5 483 300.5 480.5 304.5 474.5 308.5 469.5 312.5 465.5 317.5 455.5"/><polyline fill="none" stroke="#000" stroke-width="1" points="307 443 305 447 303 451 301.5 453 303 450 307 443"/><polyline fill="none" stroke="#000" stroke-width="1" points="331.5 409 335.5 396 339.5 388 343.5 378.5 347.5 368.5 351.5 359 355.5 352.5"/><polyline fill="none" stroke="#000" stroke-width="1" points="358 346.5 362 339.5"/><polyline fill="none" stroke="#000" stroke-width="1" points="361.5 269 366.5 273 370 277 378 281 385 283 390 287 397 291 401.5 295 406.5 299 409.5 303 413 307 414.5 311 417.5 315 419.5 315.5 421 319.5 423.5 320 425.5 324.5 427.5 328.5 432 332.5 437 336.5"/><polyline fill="none" stroke="#000" stroke-width="1" points="376.5 205.5 380.5 202 384.5 197.5 388.5 190.5 392.5 181.5"/><polyline fill="none" stroke="#000" stroke-width="1" points="364.5 153 360.5 154.5 365 152.5"/><polyline fill="none" stroke="#000" stroke-width="1" points="378.5 124.5 374.5 133.5 374.5 134.5 376 130.5 377.5 126.5 379.5 122.5 380.5 118.5 381.5 114.5 382 110.5 382.5 106.5 383 102.5 382.5 98.5 382 94.5 378.5 90.5 377.5 85 374 86.5 370 87.5 367.5 86 367.5 82 367.5 78 365 74 365 72.5 369 73 370.5 75 369.5 78 376 82 378.5 84.5 381.5 88.5 382.5 92.5 383.5 96.5 384.5 100.5 384.5 105 384.5 109 384 113 383 117 382 121 381 125 379.5 129 377.5 133 375.5 137 373 141 370.5 145 367 149 359.5 153 356.5 156.5 352.5 158 348.5 158.5 344.5 159.5 340.5 160.5 336.5 160.5 332.5 160 328.5 159.5"/><polyline fill="none" stroke="#000" stroke-width="1" points="321 160 325 160 329 158 333 158 337 158.5 341 158 345 157.5 349 156.5 353 155.5 357 154.5 361 152.5 365 150.5 369 147 373 141 377 134 381 124"/><polyline fill="none" stroke="#000" stroke-width="1" points="376.5 139.5 378.5 135.5 380 131.5 381.5 127 383 123 384 119 385 115 386 111 386 107"/><polyline fill="none" stroke="#000" stroke-width="1" points="392.5 98 388.5 103.5 388.5 103.5 392 99.5 393.5 95.5 395.5 91.5 399 90.5 400 86.5 394 93"/><polyline fill="none" stroke="#000" stroke-width="1" points="402.5 88 406.5 90"/><polyline fill="none" stroke="#000" stroke-width="1" points="403.5 77 403.5 81 403.5 85 404.5 89 408.5 93 409.5 97 408 101 407 105 406.5 109 406.5 113 406.5 117 406 121 405.5 125 404.5 129 403 133 402 137 401 141 399.5 145 399 149 399 153 398.5 157 398 161 397.5 165 396.5 169 395.5 173 394.5 177 393 181 391 185 389.5 189 387.5 193 385 197 381 201 377 205 376.5 209 376 213 375.5 217 375 221 374 225 373 229 372 233 371 237 369.5 241 367.5 245 366 249 364 253 362 257 360.5 261 359 265 359 269 359 273 359 277 359.5 281 359 285 359.5 289 360 293 360 297 360.5 301 364 305 366.5 309 369 313 369.5 317"/><polyline fill="none" stroke="#000" stroke-width="1" points="223.5 405.5 219.5 402"/><polyline fill="none" stroke="#000" stroke-width="1" points="146.5 381.5 142.5 376.5"/><polyline fill="none" stroke="#000" stroke-width="1" points="141.5 367 137.5 361 135 357 133.5 351.5 131.5 344 127.5 340"/><polyline fill="none" stroke="#000" stroke-width="1" points="135 368.5 136.5 372.5"/><polyline fill="none" stroke="#000" stroke-width="1" points="146 381 142.5 377 142 372 141.5 368 139 364 136.5 360 135.5 356 133.5 352 132 348 131 343 128 339.5 127 335.5 126.5 331.5 129.5 327.5 129 323.5 128.5 319.5 128.5 315.5 128 311.5 128 307.5 127.5 303.5 127 299.5 124 299 120 302 116 303 112 305"/><polyline fill="none" stroke="#000" stroke-width="1" points="123 275.5 119 267 115 258 111 249 107 238"/><polyline fill="none" stroke="#000" stroke-width="1" points="99 199 95 197.5 91 196 87 191"/><polyline fill="none" stroke="#000" stroke-width="1" points="83.5 179 79.5 170"/><polyline fill="none" stroke="#000" stroke-width="1" points="119 133.5 123 138 127 142 128 146.5"/><polyline fill="none" stroke="#000" stroke-width="1" points="135.5 150 129.5 146 126.5 142 122.5 138 119 134 117.5 130 116.5 128.5"/><polyline fill="none" stroke="#000" stroke-width="1" points="111.5 121 115.5 130.5 119.5 138"/><polyline fill="none" stroke="#000" stroke-width="1" points="86.5 100 82.5 95 78.5 90"/><polyline fill="none" stroke="#000" stroke-width="1" points="72.5 91 76.5 89 78.5 91.5 82.5 95.5 85.5 99.5"/><polyline fill="none" stroke="#000" stroke-width="1" points="72.5 85 76.5 79 80.5 78 84.5 78.5 79 78 74 82 72.5 86 73 89.5 73 93.5 74 97.5 74.5 101.5 75 105.5 74.5 109.5 74.5 113.5 74.5 117.5 75 121.5 75.5 125.5 76.5 129.5 77 133.5 77 137.5 77 141.5 77 145.5 77 149.5 77 153.5 77.5 157.5 77.5 161.5 78.5 165.5 79 169.5 81 173.5 82.5 177.5 84 181.5 85 185.5 86.5 189.5 88.5 193.5 94 197.5 99.5 201.5 100 205.5 101 209.5 101.5 213.5 102 217.5 103 221.5 103.5 225.5 104.5 229.5 105.5 233.5 106.5 237.5 108 241.5 109.5 245.5 111 249.5 113 253.5 114 257.5 116.5 261.5 118 265.5 120 269.5 121.5 273.5 123.5 277.5 125.5 281.5 126 285.5 127 289.5 126.5 293.5 125.5 297.5 120.5 301.5 112.5 302 108.5 306 103.5 310 98 314 94.5 318 90 322 86 326 82.5 330 79.5 334 77.5 338 72.5 342 66.5 346 60 349 52.5 353 46.5 356"/><polyline fill="none" stroke="#000" stroke-width="1" points="24.5 363 18 367 16.5 368.5 16.5 365.5 12 369.5 7 372 10.5 370 14.5 367.5 18.5 366.5 22.5 364.5 26.5 362.5 30.5 361 35 359.5 38 358.5 42 357 45 357 49 355 53 353 57 352 61 349 65 347 69 344.5 73 341.5 77 338.5 81 332 85 327 89 323 93 319.5 97 315.5 101 312 105 309 109 305.5 113 302 117 300"/><polyline fill="none" stroke="#000" stroke-width="1" points="4 372.5 0 371"/><polyline fill="none" stroke="#000" stroke-width="1" points="108 95.5 104 96 102 95.5 100.5 91.5 100 88 98 84 95 80"/><polyline fill="none" stroke="#000" stroke-width="1" points="89.5 67.5 93.5 66.5 97.5 66 101.5 65.5 105.5 65 109.5 64.5 113.5 64 117.5 64 121.5 63.5 125.5 63.5 129.5 63 133.5 63 137.5 63 141.5 62.5 145.5 62.5 149.5 62.5 153.5 62.5 157.5 62.5 161.5 63 165.5 63.5 169.5 64 173.5 65 177.5 65.5 181.5 66 185.5 66.5 189.5 67 193.5 68 197.5 69 201.5 70 205.5 70.5 209.5 71.5 213.5 73 217.5 74 221.5 75.5 225.5 78 229.5 80 233.5 79.5 237.5 79.5 241.5 79.5 247.5 79.5 251.5 79.5 255.5 80 259.5 81 263.5 81 266.5 83 270.5 80.5 274.5 78.5 278.5 77 282.5 76 286.5 74.5 290.5 73.5 294.5 72.5 298.5 72 302.5 71 305.5 75 309.5 73.5 313.5 73 317.5 72.5 321.5 72 325.5 72 329.5 72 333.5 72.5 337.5 72.5 341.5 73 346 73 350 73 354 74 358 74.5 362 75.5 366 76.5 370 78 374 80.5 378 83.5 382 90 380.5 91.5 376.5 89.5 372.5 90.5 368.5 92.5"/><polyline fill="none" stroke="#000" stroke-width="1" points="372 86.5 371.5 90.5 368.5 95 371.5 95.5 375.5 94 379.5 97 377 94 379.5 98 379.5 102 377 106 377 110 376.5 114 376 118 375.5 122 374.5 126 373 130 372.5 134 371.5 138 369 142 366 146 361 150 357.5 152 361.5 150 365.5 146.5 369.5 141.5 375 141.5 379 134"/><polyline fill="none" stroke="#000" stroke-width="1" points="338.5 95.5 334.5 91 330.5 89 326.5 86.5 322.5 84.5 322.5 84.5 327.5 88.5 335 92.5"/><polyline fill="none" stroke="#000" stroke-width="1" points="323.5 98.5 319.5 104 315.5 107 311.5 107 307.5 106.5 303.5 104 299.5 98.5"/><polyline fill="none" stroke="#000" stroke-width="1" points="299.5 89.5 299.5 90.5 299 94.5 299 98.5 301.5 102.5 306.5 106.5"/><polyline fill="none" stroke="#000" stroke-width="1" points="308 86.5 304 86.5 300 86.5 296 86.5 295.5 83.5 294.5 79.5 294 78 289.5 77 282.5 81 278 85 275 89 273 93 269.5 97"/><polyline fill="none" stroke="#000" stroke-width="1" points="273 92 277 86.5 281 82.5 285 79.5 289 77.5 293 76.5 297 75.5 301 75 305 74 309.5 77.5 309.5 81.5 309 85.5 306.5 90.5"/><polyline fill="none" stroke="#000" stroke-width="1" points="320 86 323.5 90 324 94 324 98 321.5 102 316.5 106"/><polyline fill="none" stroke="#000" stroke-width="1" points="314 66.5 318 66 322 63.5 326 64.5"/><polyline fill="none" stroke="#000" stroke-width="1" points="283.5 73 273.5 77 275.5 76 279.5 74.5 283.5 73 287.5 72 291.5 71 295.5 70.5 299.5 70 303.5 70 308 70 312 69.5 316 69 320 68.5 324 68 328 68 332 68.5 336 68 340 68 344 68 348 68.5 352 68.5 356 69 360 69 364 69.5 368 70.5 372 70.5 376 71 380 71.5"/><polyline fill="none" stroke="#000" stroke-width="1" points="402.5 76.5 398.5 75.5 394.5 74.5 390.5 73.5 386.5 73 383.5 72 384 68 384 64 384 60 384.5 56 384.5 52 384.5 48 384.5 44 384.5 40 384.5 36 384.5 32 384 28 384 24 383.5 20 383 16 382.5 12 381.5 8 380.5 4 380 0"/><polyline fill="none" stroke="#000" stroke-width="1" points="277.5 77 269 81 266 85 266 89 266.5 93 271 97.5 267.5 94.5 261 91 261 91 263.5 95"/><polyline fill="none" stroke="#000" stroke-width="1" points="266.5 103 265.5 107 267 111 267.5 115 267.5 119 267.5 123 272 120 276 128.5 276.5 126 280.5 133.5 278.5 135 277 131 275 127 274 123 272 119 271.5 115 269.5 111.5"/><polyline fill="none" stroke="#000" stroke-width="1" points="273.5 117 274.5 121 276 125 277.5 129 280 133"/><polyline fill="none" stroke="#000" stroke-width="1" points="261.5 85.5 257.5 85 256 83.5 260 83.5 264 84.5 264 88 260 87 256 86 252 86 248 86 244 86 240 86.5 236 87 232 88 228 94 224 95 228.5 93.5 230 89.5 230.5 85.5 230 81.5 225 78 216.5 74"/><polyline fill="none" stroke="#000" stroke-width="1" points="212 58.5 208 56 208 56 213.5 60"/><polyline fill="none" stroke="#000" stroke-width="1" points="201.5 51 197.5 47.5 197.5 47.5 201.5 51.5 204 53"/><polyline fill="none" stroke="#000" stroke-width="1" points="200 67.5 196 66.5 192 66 188 65 184 64.5 180 64 176 63.5 172 62.5 168 61.5"/><polyline fill="none" stroke="#000" stroke-width="1" points="144 54.5 140.5 58 136.5 59.5 132.5 59"/><polyline fill="none" stroke="#000" stroke-width="1" points="123 70.5 117 74.5 113.5 78.5 111.5 82.5 109.5 86.5 109 90.5 108.5 94.5 105.5 99.5 106 103.5 106.5 107.5 107.5 111.5 108 115.5 109 119.5 110.5 123.5 112 127.5 114 131.5 116 135.5 118.5 139.5 122.5 143.5 126.5 147.5 134.5 151.5"/><polyline fill="none" stroke="#000" stroke-width="1" points="143.5 83 142 86 144.5 82"/><polyline fill="none" stroke="#000" stroke-width="1" points="0 369 144 369 144 372 8 508"/><polyline fill="none" stroke="#000" stroke-width="1" points="16 508 144 380 144 376 12 508"/><polyline fill="none" stroke="#000" stroke-width="1" points="24 508 148 384 148 380 20 508"/><polyline fill="none" stroke="#000" stroke-width="1" points="40 508 152 396 152 392 36 508"/><polyline fill="none" stroke="#000" stroke-width="1" points="72 508 160 420 156 420 68 508"/><polyline fill="none" stroke="#000" stroke-width="1" points="136 508 184 460 180 460 132 508"/><polyline fill="none" stroke="#000" stroke-width="1" points="196 508 216 488 216 484 192 508"/><polyline fill="none" stroke="#000" stroke-width="1" points="220 508 228 500 228 496 216 508"/><polyline fill="none" stroke="#000" stroke-width="1" points="228 508 236 500 232 500 224 508"/><polyline fill="none" stroke="#000" stroke-width="1" points="232 508 240 500 244 500 236 508"/><polyline fill="none" stroke="#000" stroke-width="1" points="248 508 256 500 252 500 244 508 240 508 248 500 248 503 512 503 512 504 508 508 504 508 512 500 512 496 500 508 496 508 512 492 512 488 492 508 488 508 512 484 512 480 484 508 480 508 512 476 512 472 476 508 472 508 512 468 512 464 468 508 464 508 512 460 512 456 460 508 456 508 512 452 512 448 452 508 448 508 512 444 512 440 444 508 440 508 512 436 512 432 436 508 432 508 512 428 512 424 428 508 424 508 512 420 512 416 420 508 416 508 512 412 512 408 412 508 408 508 512 404 512 400 404 508 400 508 512 396 512 392 396 508 392 508 512 388 512 384 388 508 384 508 512 380 512 376 380 508 376 508 512 372 512 368 372 508 368 508 512 364 512 360 364 508 360 508 512 356 512 352 356 508 352 508 512 348 512 344 348 508 344 508 508 344 504 344 340 508 336 508 500 344 500 340 332 508 328 508 496 340 492 340 324 508 320 508 488 340"/><polyline fill="none" stroke="#000" stroke-width="1" points="480 344 316 508 312 508 476 344 472 344 308 508 304 508 468 344 464 344 300 508 296 508 464 340 460 340 292 508 288 508 456 340 452 340 284 508 280 508 448 340 444 340 276 508 272 508 440 340 440 336 312 464 316 463 512 463"/><polyline fill="none" stroke="#000" stroke-width="1" points="436 336 316 456 316 459 512 459"/><polyline fill="none" stroke="#000" stroke-width="1" points="436 332 312 456"/><polyline fill="none" stroke="#000" stroke-width="1" points="320 455 512 455"/><polyline fill="none" stroke="#000" stroke-width="1" points="432 332 320 444 320 440 432 328 428 328 320 436 324 435 512 435"/><polyline fill="none" stroke="#000" stroke-width="1" points="428 324 324 428 328 427 512 427"/><polyline fill="none" stroke="#000" stroke-width="1" points="424 324 328 420 328 419 512 419"/><polyline fill="none" stroke="#000" stroke-width="1" points="424 320 328 416 332 415 512 415"/><polyline fill="none" stroke="#000" stroke-width="1" points="420 320 332 408 332 411 512 411"/><polyline fill="none" stroke="#000" stroke-width="1" points="420 316 332 404 336 403 512 403"/><polyline fill="none" stroke="#000" stroke-width="1" points="420 312 336 396 336 399 512 399"/><polyline fill="none" stroke="#000" stroke-width="1" points="416 312 336 392 336 388 416 308 412 308 332 388"/><polyline fill="none" stroke="#000" stroke-width="1" points="340 387 512 387"/><polyline fill="none" stroke="#000" stroke-width="1" points="412 304 340 376 344 379 512 379"/><polyline fill="none" stroke="#000" stroke-width="1" points="408 304 344 368 348 367 512 367"/><polyline fill="none" stroke="#000" stroke-width="1" points="408 300 348 360 352 359 512 359"/><polyline fill="none" stroke="#000" stroke-width="1" points="404 300 356 348 360 347 512 347"/><polyline fill="none" stroke="#000" stroke-width="1" points="404 296 360 340 364 339 436 339"/><polyline fill="none" stroke="#000" stroke-width="1" points="400 296 364 332 364 328 400 292 396 292 364 324 364 320 396 288 392 288 364 316 364 312 388 288 388 284 364 308 364 304 384 284 384 280 360 304 360 300 380 280 376 280 360 296 360 292 372 280 372 276 360 288 360 287 388 287"/><polyline fill="none" stroke="#000" stroke-width="1" points="368 276 360 284 360 283 380 283"/><polyline fill="none" stroke="#000" stroke-width="1" points="368 272 360 280 360 279 368 279"/><polyline fill="none" stroke="#000" stroke-width="1" points="364 272 360 276 360 275 368 275"/><polyline fill="none" stroke="#000" stroke-width="1" points="364 268 360 272 360 268 356 272"/><polyline fill="none" stroke="#000" stroke-width="1" points="360 291 392 291"/><polyline fill="none" stroke="#000" stroke-width="1" points="412 307 368 307 368 311 412 311"/><polyline fill="none" stroke="#000" stroke-width="1" points="424 327 372 327 372 323 420 323 420 319 372 319 372 315 416 315"/><polyline fill="none" stroke="#000" stroke-width="1" points="432 335 368 335 368 331 428 331"/><polyline fill="none" stroke="#000" stroke-width="1" points="456 343 364 343"/><polyline fill="none" stroke="#000" stroke-width="1" points="360 351 512 351"/><polyline fill="none" stroke="#000" stroke-width="1" points="408 303 364 303 364 299 404 299 400 295 364 295"/><polyline fill="none" stroke="#000" stroke-width="1" points="356 355 512 355"/><polyline fill="none" stroke="#000" stroke-width="1" points="512 363 352 363"/><polyline fill="none" stroke="#000" stroke-width="1" points="348 371 512 371 512 375 348 375"/><polyline fill="none" stroke="#000" stroke-width="1" points="344 383 512 383"/><polyline fill="none" stroke="#000" stroke-width="1" points="512 395 340 395 340 391 512 391"/><polyline fill="none" stroke="#000" stroke-width="1" points="512 407 336 407"/><polyline fill="none" stroke="#000" stroke-width="1" points="328 423 512 423"/><polyline fill="none" stroke="#000" stroke-width="1" points="512 431 328 431"/><polyline fill="none" stroke="#000" stroke-width="1" points="324 439 512 439"/><polyline fill="none" stroke="#000" stroke-width="1" points="512 447 324 447 324 443 512 443"/><polyline fill="none" stroke="#000" stroke-width="1" points="512 451 320 451"/><polyline fill="none" stroke="#000" stroke-width="1" points="308 441 512 441"/><polyline fill="none" stroke="#000" stroke-width="1" points="512 467 316 467 312 471 512 471"/><polyline fill="none" stroke="#000" stroke-width="1" points="512 421 316 421 312 425 512 425"/><polyline fill="none" stroke="#000" stroke-width="1" points="320 392 312 400 312 396 316 392"/><polyline fill="none" stroke="#000" stroke-width="1" points="308 429 512 429"/><polyline fill="none" stroke="#000" stroke-width="1" points="512 475 312 475 308 479 512 479"/><polyline fill="none" stroke="#000" stroke-width="1" points="512 437 308 437 308 433 512 433"/><polyline fill="none" stroke="#000" stroke-width="1" points="512 445 304 445 300 449 512 449"/><polyline fill="none" stroke="#000" stroke-width="1" points="512 483 300 483"/><polyline fill="none" stroke="#000" stroke-width="1" points="296 477 512 477 512 473 300 473 296 473 292 473 288 469 512 469"/><polyline fill="none" stroke="#000" stroke-width="1" points="512 453 296 453 292 457 512 457"/><polyline fill="none" stroke="#000" stroke-width="1" points="512 487 292 487 292 484 268 508 264 508 284 488 284 491 512 491"/><polyline fill="none" stroke="#000" stroke-width="1" points="512 481 292 481 288 485 512 485"/><polyline fill="none" stroke="#000" stroke-width="1" points="512 461 292 461 288 465 512 465"/><polyline fill="none" stroke="#000" stroke-width="1" points="288 473 284 473"/><polyline fill="none" stroke="#000" stroke-width="1" points="276 489 512 489"/><polyline fill="none" stroke="#000" stroke-width="1" points="276 492 260 508 256 508 268 496 268 493 512 493"/><polyline fill="none" stroke="#000" stroke-width="1" points="452 337 284 337 284 333 440 333"/><polyline fill="none" stroke="#000" stroke-width="1" points="392 181 332 181 332 177 392 177"/><polyline fill="none" stroke="#000" stroke-width="1" points="400 145 372 145 372 141 400 141"/><polyline fill="none" stroke="#000" stroke-width="1" points="404 129 380 129 380 125 404 125"/><polyline fill="none" stroke="#000" stroke-width="1" points="404 113 384 113 384 109 408 109"/><polyline fill="none" stroke="#000" stroke-width="1" points="392 100 388 104 384 104 396 92"/><polyline fill="none" stroke="#000" stroke-width="1" points="384 92 400 76 396 76 384 88 384 87 400 87"/><polyline fill="none" stroke="#000" stroke-width="1" points="404 80 384 100 384 99 392 99"/><polyline fill="none" stroke="#000" stroke-width="1" points="384 97 408 97"/><polyline fill="none" stroke="#000" stroke-width="1" points="404 76 384 96 384 95 392 95"/><polyline fill="none" stroke="#000" stroke-width="1" points="384 93 408 93"/><polyline fill="none" stroke="#000" stroke-width="1" points="392 76 380 88 380 89 404 89"/><polyline fill="none" stroke="#000" stroke-width="1" points="408 105 384 105 384 101 408 101"/><polyline fill="none" stroke="#000" stroke-width="1" points="396 91 384 91"/><polyline fill="none" stroke="#000" stroke-width="1" points="380 84 388 76 388 72 376 84 376 85 404 85"/><polyline fill="none" stroke="#000" stroke-width="1" points="384 72 376 80 376 79 400 79 400 83 380 83 376 81 404 81"/><polyline fill="none" stroke="#000" stroke-width="1" points="380 72 372 80 372 76 376 72 372 72 368 76 368 72 364 76 360 76 368 68 364 68 356 76 352 76 360 68 356 68 352 72 352 68 348 72 348 68 344 72 340 72 348 64 344 64 336 72 332 72 340 64 336 64 328 72 328 68 324 72 324 68 320 72 320 68 316 72 316 68 312 72 312 68 308 72 304 72 316 60 312 60 304 68 300 68 308 60 304 60 296 68 296 64 292 68 292 64 288 68 292 72 268 96 268 92 284 76 280 76 268 88 268 87 276 87 272 83 280 83"/><polyline fill="none" stroke="#000" stroke-width="1" points="272 80 268 84 268 81 296 81"/><polyline fill="none" stroke="#000" stroke-width="1" points="292 76 296 72"/><polyline fill="none" stroke="#000" stroke-width="1" points="308 81 368 81"/><polyline fill="none" stroke="#000" stroke-width="1" points="372 75 380 75"/><polyline fill="none" stroke="#000" stroke-width="1" points="352 92 344 100 348 100 352 96 348 92 344 96 340 96 348 88 344 88 340 92 340 88 336 92 336 88 332 92 332 88 336 84 332 84 328 88 324 88 308 104 312 104 324 92 324 96 316 104"/><polyline fill="none" stroke="#000" stroke-width="1" points="308 96 304 100 304 104 320 88"/><polyline fill="none" stroke="#000" stroke-width="1" points="320 80 300 100 300 101 328 101 332 101 380 101"/><polyline fill="none" stroke="#000" stroke-width="1" points="380 117 404 117 404 121 380 121"/><polyline fill="none" stroke="#000" stroke-width="1" points="376 133 404 133 400 137 376 137"/><polyline fill="none" stroke="#000" stroke-width="1" points="368 149 400 149"/><polyline fill="none" stroke="#000" stroke-width="1" points="372 137 356 137 356 133 372 133"/><polyline fill="none" stroke="#000" stroke-width="1" points="360 149 352 149 352 145 364 145 368 141 352 141"/><polyline fill="none" stroke="#000" stroke-width="1" points="344 153 400 153"/><polyline fill="none" stroke="#000" stroke-width="1" points="396 173 336 173 336 169 396 169 396 165 336 165 332 161 396 161"/><polyline fill="none" stroke="#000" stroke-width="1" points="352 133 336 133 336 129 372 129 372 125 332 125"/><polyline fill="none" stroke="#000" stroke-width="1" points="328 137 348 137"/><polyline fill="none" stroke="#000" stroke-width="1" points="344 145 328 145 328 141 348 141"/><polyline fill="none" stroke="#000" stroke-width="1" points="316 141 312 141 316 137 304 137"/><polyline fill="none" stroke="#000" stroke-width="1" points="300 121 376 121"/><polyline fill="none" stroke="#000" stroke-width="1" points="376 105 332 105"/><polyline fill="none" stroke="#000" stroke-width="1" points="312 92 324 80"/><polyline fill="none" stroke="#000" stroke-width="1" points="316 80 312 84 308 85 368 85"/><polyline fill="none" stroke="#000" stroke-width="1" points="356 71 332 71"/><polyline fill="none" stroke="#000" stroke-width="1" points="324 60 320 64 320 60 316 64"/><polyline fill="none" stroke="#000" stroke-width="1" points="312 77 404 77"/><polyline fill="none" stroke="#000" stroke-width="1" points="384 49 348 49 348 45 384 45"/><polyline fill="none" stroke="#000" stroke-width="1" points="384 17 348 17 348 13 380 13 380 9 348 9 348 5 380 5 380 1 348 1 344 1 340 1 340 5 336 5 336 9 340 9"/><polyline fill="none" stroke="#000" stroke-width="1" points="344 21 384 21"/><polyline fill="none" stroke="#000" stroke-width="1" points="384 41 344 41 344 37 384 37 384 33 344 33 344 29 384 29 384 25 344 25"/><polyline fill="none" stroke="#000" stroke-width="1" points="340 49 308 49"/><polyline fill="none" stroke="#000" stroke-width="1" points="300 53 384 53"/><polyline fill="none" stroke="#000" stroke-width="1" points="308 88 300 96 300 92 304 88"/><polyline fill="none" stroke="#000" stroke-width="1" points="304 105 324 105"/><polyline fill="none" stroke="#000" stroke-width="1" points="296 129 280 129"/><polyline fill="none" stroke="#000" stroke-width="1" points="272 120 268 124 268 120 272 116 272 112 268 116"/><polyline fill="none" stroke="#000" stroke-width="1" points="260 117 376 117"/><polyline fill="none" stroke="#000" stroke-width="1" points="384 193 328 193 328 189 388 189"/><polyline fill="none" stroke="#000" stroke-width="1" points="384 197 328 197 324 201 380 201"/><polyline fill="none" stroke="#000" stroke-width="1" points="388 185 328 185"/><polyline fill="none" stroke="#000" stroke-width="1" points="320 205 376 205 376 209 320 209 316 213 376 213 376 217 316 217 312 221 376 221"/><polyline fill="none" stroke="#000" stroke-width="1" points="396 157 308 157"/><polyline fill="none" stroke="#000" stroke-width="1" points="296 181 272 181 272 177 292 177 292 173 272 173 272 169 288 169 288 165 272 165 272 161 292 161 292 157 268 157 268 153 308 153"/><polyline fill="none" stroke="#000" stroke-width="1" points="296 185 268 185 264 189 296 189"/><polyline fill="none" stroke="#000" stroke-width="1" points="308 221 260 221 256 217 304 217"/><polyline fill="none" stroke="#000" stroke-width="1" points="288 249 364 249 364 253 280 253 280 249 284 249 280 245 368 245 368 241 276 241 272 241 268 241 268 237 368 237"/><polyline fill="none" stroke="#000" stroke-width="1" points="400 289 272 289 272 285 392 285"/><polyline fill="none" stroke="#000" stroke-width="1" points="432 329 280 329"/><polyline fill="none" stroke="#000" stroke-width="1" points="272 325 428 325"/><polyline fill="none" stroke="#000" stroke-width="1" points="512 341 280 341 276 345 512 345"/><polyline fill="none" stroke="#000" stroke-width="1" points="512 495 276 495"/><polyline fill="none" stroke="#000" stroke-width="1" points="264 496 252 508"/><polyline fill="none" stroke="#000" stroke-width="1" points="252 497 512 497"/><polyline fill="none" stroke="#000" stroke-width="1" points="272 449 268 449"/><polyline fill="none" stroke="#000" stroke-width="1" points="260 445 280 445"/><polyline fill="none" stroke="#000" stroke-width="1" points="292 437 264 437 264 433 296 433"/><polyline fill="none" stroke="#000" stroke-width="1" points="284 441 260 441"/><polyline fill="none" stroke="#000" stroke-width="1" points="260 429 304 429"/><polyline fill="none" stroke="#000" stroke-width="1" points="264 457 256 457"/><polyline fill="none" stroke="#000" stroke-width="1" points="248 453 268 453 264 449 244 449 248 445 236 445"/><polyline fill="none" stroke="#000" stroke-width="1" points="244 421 312 421 308 425 252 425"/><polyline fill="none" stroke="#000" stroke-width="1" points="240 417 512 417"/><polyline fill="none" stroke="#000" stroke-width="1" points="388 281 272 281 272 277 376 277"/><polyline fill="none" stroke="#000" stroke-width="1" points="268 268 264 272 264 268 260 272"/><polyline fill="none" stroke="#000" stroke-width="1" points="256 257 360 257"/><polyline fill="none" stroke="#000" stroke-width="1" points="272 249 268 249 264 253 276 253"/><polyline fill="none" stroke="#000" stroke-width="1" points="268 233 372 233 372 229 268 229 264 225 372 225"/><polyline fill="none" stroke="#000" stroke-width="1" points="296 149 268 149 264 145 292 145 292 141 264 141 264 137 296 137"/><polyline fill="none" stroke="#000" stroke-width="1" points="296 105 264 105 264 101 296 101"/><polyline fill="none" stroke="#000" stroke-width="1" points="272 91 268 91"/><polyline fill="none" stroke="#000" stroke-width="1" points="264 85 296 85"/><polyline fill="none" stroke="#000" stroke-width="1" points="284 57 384 57"/><polyline fill="none" stroke="#000" stroke-width="1" points="376 109 264 109 260 113 376 113"/><polyline fill="none" stroke="#000" stroke-width="1" points="380 97 264 97 260 93 368 93"/><polyline fill="none" stroke="#000" stroke-width="1" points="384 61 264 61 260 65 384 65"/><polyline fill="none" stroke="#000" stroke-width="1" points="304 133 260 133 260 129 276 129"/><polyline fill="none" stroke="#000" stroke-width="1" points="260 125 292 125 296 121 260 121"/><polyline fill="none" stroke="#000" stroke-width="1" points="260 89 376 89"/><polyline fill="none" stroke="#000" stroke-width="1" points="292 77 260 77 260 73 396 73"/><polyline fill="none" stroke="#000" stroke-width="1" points="384 69 260 69"/><polyline fill="none" stroke="#000" stroke-width="1" points="228 76 220 84 220 83 228 83 228 84 224 88 224 87 228 87 228 88 224 92 224 91 228 91 232 88 224 96 220 97 236 97 232 101 220 101 216 105 232 105"/><polyline fill="none" stroke="#000" stroke-width="1" points="232 113 220 113 216 117 232 117"/><polyline fill="none" stroke="#000" stroke-width="1" points="224 129 216 129 216 125 224 125 228 121 216 121"/><polyline fill="none" stroke="#000" stroke-width="1" points="212 133 220 133 216 137 212 137 212 141 208 141"/><polyline fill="none" stroke="#000" stroke-width="1" points="204 125 188 125 184 121 208 121"/><polyline fill="none" stroke="#000" stroke-width="1" points="216 101 192 101 196 97 216 97"/><polyline fill="none" stroke="#000" stroke-width="1" points="220 88 228 80 224 76 216 84 216 80 220 76 220 72 212 80 212 76 216 72 212 72 208 76 208 75 212 75 208 72 204 76 204 72 208 68 204 68 200 72 200 68 196 72 192 73 228 73"/><polyline fill="none" stroke="#000" stroke-width="1" points="224 79 216 79"/><polyline fill="none" stroke="#000" stroke-width="1" points="200 93 236 93 236 89 196 89 192 85 232 85 232 81 192 81 192 77 228 77"/><polyline fill="none" stroke="#000" stroke-width="1" points="196 60 192 64 188 64 196 56 192 56 184 64 184 60 188 56 184 56 180 60 180 56 176 60 176 56 172 60 172 64 168 68 168 64 164 68 164 64 160 68 160 64 156 68 156 64 152 68 148 68 156 60"/><polyline fill="none" stroke="#000" stroke-width="1" points="148 64 144 68 144 64 140 68 140 64 136 68 136 64 132 68 132 64 128 68 128 64 120 72"/><polyline fill="none" stroke="#000" stroke-width="1" points="120 64 96 88 96 89 120 89 120 93 116 93 116 97 124 97 128 101 116 101"/><polyline fill="none" stroke="#000" stroke-width="1" points="112 109 108 109 108 113 112 113 112 117 108 117"/><polyline fill="none" stroke="#000" stroke-width="1" points="112 125 116 125 116 129 112 129 116 133 120 133 120 137 124 137 124 141 120 141"/><polyline fill="none" stroke="#000" stroke-width="1" points="136 149 140 149 144 153 160 153"/><polyline fill="none" stroke="#000" stroke-width="1" points="172 137 180 137"/><polyline fill="none" stroke="#000" stroke-width="1" points="172 133 188 133 184 129 196 129"/><polyline fill="none" stroke="#000" stroke-width="1" points="212 117 176 117"/><polyline fill="none" stroke="#000" stroke-width="1" points="168 117 160 117"/><polyline fill="none" stroke="#000" stroke-width="1" points="148 109 232 109"/><polyline fill="none" stroke="#000" stroke-width="1" points="184 92 176 100 172 100 184 88"/><polyline fill="none" stroke="#000" stroke-width="1" points="176 88 168 96 168 100 176 92 172 88 164 96 164 97 188 97"/><polyline fill="none" stroke="#000" stroke-width="1" points="172 84 164 92 164 88 172 80 168 80 164 84 160 80 156 84"/><polyline fill="none" stroke="#000" stroke-width="1" points="160 89 188 89"/><polyline fill="none" stroke="#000" stroke-width="1" points="184 101 164 101"/><polyline fill="none" stroke="#000" stroke-width="1" points="160 93 188 93"/><polyline fill="none" stroke="#000" stroke-width="1" points="168 60 176 52 172 52 168 56"/><polyline fill="none" stroke="#000" stroke-width="1" points="152 49 196 49"/><polyline fill="none" stroke="#000" stroke-width="1" points="212 53 144 53 140 57 216 57"/><polyline fill="none" stroke="#000" stroke-width="1" points="148 88 144 92"/><polyline fill="none" stroke="#000" stroke-width="1" points="136 93 156 93"/><polyline fill="none" stroke="#000" stroke-width="1" points="160 101 144 101 148 105 212 105"/><polyline fill="none" stroke="#000" stroke-width="1" points="148 117 140 117 136 113 216 113"/><polyline fill="none" stroke="#000" stroke-width="1" points="212 193 232 193"/><polyline fill="none" stroke="#000" stroke-width="1" points="228 209 220 209 216 205 296 205"/><polyline fill="none" stroke="#000" stroke-width="1" points="296 193 260 193"/><polyline fill="none" stroke="#000" stroke-width="1" points="252 213 296 213 292 209 244 209"/><polyline fill="none" stroke="#000" stroke-width="1" points="212 201 296 201"/><polyline fill="none" stroke="#000" stroke-width="1" points="264 277 244 277"/><polyline fill="none" stroke="#000" stroke-width="1" points="224 273 368 273"/><polyline fill="none" stroke="#000" stroke-width="1" points="404 293 264 293"/><polyline fill="none" stroke="#000" stroke-width="1" points="252 297 408 297"/><polyline fill="none" stroke="#000" stroke-width="1" points="512 349 260 349"/><polyline fill="none" stroke="#000" stroke-width="1" points="228 353 512 353"/><polyline fill="none" stroke="#000" stroke-width="1" points="512 499 264 499"/><polyline fill="none" stroke="#000" stroke-width="1" points="232 485 228 485 224 489 240 489"/><polyline fill="none" stroke="#000" stroke-width="1" points="224 496 212 508 208 508 220 496 220 492 204 508 200 508 216 492"/><polyline fill="none" stroke="#000" stroke-width="1" points="216 480 188 508 184 508 212 480 208 480 180 508 176 508 208 476 204 476 172 508 168 508 196 480 196 476 164 508 160 508 192 476 192 472 156 508 152 508 188 472 188 468 148 508 144 508 184 468 184 464 140 508"/><polyline fill="none" stroke="#000" stroke-width="1" points="128 508 180 456 176 456 124 508 120 508 176 452 176 448 116 508 112 508 172 448 172 444 108 508 104 508 172 440 168 440 100 508 96 508 168 436 164 436 92 508 88 508 164 432 164 428 84 508 80 508 160 428 160 424 76 508"/><polyline fill="none" stroke="#000" stroke-width="1" points="60 508 160 408 156 408 56 508"/><polyline fill="none" stroke="#000" stroke-width="1" points="64 508 156 416"/><polyline fill="none" stroke="#000" stroke-width="1" points="156 404 52 508 48 508 156 400 152 400 44 508"/><polyline fill="none" stroke="#000" stroke-width="1" points="32 508 152 388 148 388 28 508"/><polyline fill="none" stroke="#000" stroke-width="1" points="4 508 140 372 140 368 0 508 0 507 512 507"/><polyline fill="none" stroke="#000" stroke-width="1" points="512 413 240 413 236 409 512 409"/><polyline fill="none" stroke="#000" stroke-width="1" points="428 321 236 321"/><polyline fill="none" stroke="#000" stroke-width="1" points="228 321 224 321"/><polyline fill="none" stroke="#000" stroke-width="1" points="216 317 424 317"/><polyline fill="none" stroke="#000" stroke-width="1" points="512 405 228 405 224 401 512 401 512 397 216 397"/><polyline fill="none" stroke="#000" stroke-width="1" points="208 393 512 393"/><polyline fill="none" stroke="#000" stroke-width="1" points="236 257 216 257"/><polyline fill="none" stroke="#000" stroke-width="1" points="208 261 360 261"/><polyline fill="none" stroke="#000" stroke-width="1" points="420 313 212 313"/><polyline fill="none" stroke="#000" stroke-width="1" points="204 301 412 301"/><polyline fill="none" stroke="#000" stroke-width="1" points="296 197 208 197"/><polyline fill="none" stroke="#000" stroke-width="1" points="180 265 360 265"/><polyline fill="none" stroke="#000" stroke-width="1" points="224 297 200 297 200 293 212 293 208 289 200 289 200 285 188 285 184 281 196 281"/><polyline fill="none" stroke="#000" stroke-width="1" points="208 273 180 273 180 269 364 269"/><polyline fill="none" stroke="#000" stroke-width="1" points="416 309 188 309 188 305 416 305"/><polyline fill="none" stroke="#000" stroke-width="1" points="512 389 200 389 196 385 512 385 512 381 192 381 188 377 512 377"/><polyline fill="none" stroke="#000" stroke-width="1" points="200 457 196 457 196 453 192 453 192 449 188 449 188 445 184 445 180 441 188 441 184 437 176 437"/><polyline fill="none" stroke="#000" stroke-width="1" points="188 373 512 373 512 369 184 369 180 365 512 365 512 361 176 361 176 357 512 357"/><polyline fill="none" stroke="#000" stroke-width="1" points="192 277 176 277"/><polyline fill="none" stroke="#000" stroke-width="1" points="164 305 160 305"/><polyline fill="none" stroke="#000" stroke-width="1" points="148 297 144 297 140 293 148 293 144 289 140 289 136 293 128 293 128 289 136 289 136 285 128 285 128 281 136 281 136 277 128 277 124 273 136 273 132 269 128 269"/><polyline fill="none" stroke="#000" stroke-width="1" points="124 297 140 297"/><polyline fill="none" stroke="#000" stroke-width="1" points="136 305 156 305"/><polyline fill="none" stroke="#000" stroke-width="1" points="164 309 140 309 140 313 192 313"/><polyline fill="none" stroke="#000" stroke-width="1" points="196 349 168 349 164 345 184 345"/><polyline fill="none" stroke="#000" stroke-width="1" points="172 353 212 353"/><polyline fill="none" stroke="#000" stroke-width="1" points="180 341 164 341 160 337 180 337 176 333 156 333 152 329 176 329 176 325 148 325 144 321 176 321"/><polyline fill="none" stroke="#000" stroke-width="1" points="184 317 144 317"/><polyline fill="none" stroke="#000" stroke-width="1" points="128 316 0 444 0 443 168 443"/><polyline fill="none" stroke="#000" stroke-width="1" points="140 364 0 504 0 503 232 503"/><polyline fill="none" stroke="#000" stroke-width="1" points="140 360 0 500 0 499 216 499"/><polyline fill="none" stroke="#000" stroke-width="1" points="136 360 0 496 0 495 216 495"/><polyline fill="none" stroke="#000" stroke-width="1" points="136 356 0 492 0 491 216 491"/><polyline fill="none" stroke="#000" stroke-width="1" points="136 352 0 488 0 487 216 487"/><polyline fill="none" stroke="#000" stroke-width="1" points="132 352 0 484 0 483 212 483"/><polyline fill="none" stroke="#000" stroke-width="1" points="132 348 0 480 0 479 192 479"/><polyline fill="none" stroke="#000" stroke-width="1" points="132 344 0 476 0 475 188 475"/><polyline fill="none" stroke="#000" stroke-width="1" points="132 340 0 472 0 471 184 471"/><polyline fill="none" stroke="#000" stroke-width="1" points="128 340 0 468 0 467 180 467"/><polyline fill="none" stroke="#000" stroke-width="1" points="128 336 0 464 0 463 180 463"/><polyline fill="none" stroke="#000" stroke-width="1" points="124 339 116 339"/><polyline fill="none" stroke="#000" stroke-width="1" points="112 331 124 331 128 332 0 460 0 459 176 459"/><polyline fill="none" stroke="#000" stroke-width="1" points="128 328 0 456 0 455 176 455"/><polyline fill="none" stroke="#000" stroke-width="1" points="128 324 0 452 0 451 172 451"/><polyline fill="none" stroke="#000" stroke-width="1" points="124 327 112 327 108 323 120 323"/><polyline fill="none" stroke="#000" stroke-width="1" points="128 320 0 448 0 447 172 447"/><polyline fill="none" stroke="#000" stroke-width="1" points="104 331 100 331 100 327 104 327"/><polyline fill="none" stroke="#000" stroke-width="1" points="108 319 124 319"/><polyline fill="none" stroke="#000" stroke-width="1" points="128 312 0 440 0 439 164 439"/><polyline fill="none" stroke="#000" stroke-width="1" points="124 335 96 335"/><polyline fill="none" stroke="#000" stroke-width="1" points="84 339 112 339"/><polyline fill="none" stroke="#000" stroke-width="1" points="112 315 128 315"/><polyline fill="none" stroke="#000" stroke-width="1" points="128 308 0 436 0 435 164 435"/><polyline fill="none" stroke="#000" stroke-width="1" points="132 321 88 321 84 325 132 325"/><polyline fill="none" stroke="#000" stroke-width="1" points="128 304 0 432 0 431 160 431"/><polyline fill="none" stroke="#000" stroke-width="1" points="128 343 84 343"/><polyline fill="none" stroke="#000" stroke-width="1" points="76 347 128 347"/><polyline fill="none" stroke="#000" stroke-width="1" points="128 311 112 311 108 308 0 416 0 415 152 415"/><polyline fill="none" stroke="#000" stroke-width="1" points="132 333 80 333 80 329 132 329"/><polyline fill="none" stroke="#000" stroke-width="1" points="124 307 120 307 116 304 0 420 0 419 156 419"/><polyline fill="none" stroke="#000" stroke-width="1" points="132 317 92 317 96 313 132 313"/><polyline fill="none" stroke="#000" stroke-width="1" points="128 300 0 428 0 427 160 427"/><polyline fill="none" stroke="#000" stroke-width="1" points="132 351 76 351"/><polyline fill="none" stroke="#000" stroke-width="1" points="68 355 132 355"/><polyline fill="none" stroke="#000" stroke-width="1" points="132 305 108 305 112 301 152 301"/><polyline fill="none" stroke="#000" stroke-width="1" points="124 300 0 424 0 423 156 423"/><polyline fill="none" stroke="#000" stroke-width="1" points="132 309 100 309"/><polyline fill="none" stroke="#000" stroke-width="1" points="76 337 132 337 136 341 68 341 64 345 136 345"/><polyline fill="none" stroke="#000" stroke-width="1" points="64 348 0 412 0 411 152 411"/><polyline fill="none" stroke="#000" stroke-width="1" points="68 351 64 351"/><polyline fill="none" stroke="#000" stroke-width="1" points="56 352 0 408 0 407 148 407"/><polyline fill="none" stroke="#000" stroke-width="1" points="60 355 56 355"/><polyline fill="none" stroke="#000" stroke-width="1" points="56 349 136 349"/><polyline fill="none" stroke="#000" stroke-width="1" points="48 356 0 404 0 403 148 403"/><polyline fill="none" stroke="#000" stroke-width="1" points="132 359 48 359 44 356 0 400 0 399 148 399"/><polyline fill="none" stroke="#000" stroke-width="1" points="140 353 44 353"/><polyline fill="none" stroke="#000" stroke-width="1" points="36 360 0 396 0 395 148 395"/><polyline fill="none" stroke="#000" stroke-width="1" points="136 363 36 363 32 360 0 392 0 391 144 391"/><polyline fill="none" stroke="#000" stroke-width="1" points="140 357 32 357"/><polyline fill="none" stroke="#000" stroke-width="1" points="24 361 144 361"/><polyline fill="none" stroke="#000" stroke-width="1" points="24 364 0 388 0 387 140 387"/><polyline fill="none" stroke="#000" stroke-width="1" points="132 367 24 367"/><polyline fill="none" stroke="#000" stroke-width="1" points="16 368 0 384 0 383 140 383"/><polyline fill="none" stroke="#000" stroke-width="1" points="136 371 16 371 12 368 0 380 0 379 140 379"/><polyline fill="none" stroke="#000" stroke-width="1" points="144 365 16 365"/><polyline fill="none" stroke="#000" stroke-width="1" points="4 372 0 376 0 377 148 377"/><polyline fill="none" stroke="#000" stroke-width="1" points="136 375 4 375 0 373 148 373"/><polyline fill="none" stroke="#000" stroke-width="1" points="220 489 0 489 0 485 220 485"/><polyline fill="none" stroke="#000" stroke-width="1" points="240 497 0 497 0 493 240 493"/><polyline fill="none" stroke="#000" stroke-width="1" points="0 501 512 501 512 505 0 505"/><polyline fill="none" stroke="#000" stroke-width="1" points="0 481 216 481 212 477 0 477 0 473 196 473 192 469 0 469 0 465 188 465 188 461 0 461 0 457 184 457 180 453 0 453 0 449 180 449 176 445 0 445 0 441 176 441 172 437 0 437 0 433 180 433 180 429 0 429 0 425 176 425 176 421 0 421 0 417 172 417 172 413 0 413 0 409 168 409 164 405 0 405 0 401 164 401 160 397 0 397 0 393 160 393 156 389 0 389 0 385 156 385 152 381 0 381"/><polyline fill="none" stroke="#000" stroke-width="1" points="96 193 100 193"/><polyline fill="none" stroke="#000" stroke-width="1" points="104 105 112 105 112 101 104 101 104 96 108 92 104 92 112 84 112 80 100 92 100 93 108 93 108 91 104 91 100 88 124 64 124 61 228 61"/><polyline fill="none" stroke="#000" stroke-width="1" points="156 97 136 97"/><polyline fill="none" stroke="#000" stroke-width="1" points="132 89 156 89"/><polyline fill="none" stroke="#000" stroke-width="1" points="132 85 188 85"/><polyline fill="none" stroke="#000" stroke-width="1" points="140 109 132 109"/><polyline fill="none" stroke="#000" stroke-width="1" points="132 81 176 81 172 77 132 77 128 73 172 73"/><polyline fill="none" stroke="#000" stroke-width="1" points="116 64 96 84 96 80 112 64"/><polyline fill="none" stroke="#000" stroke-width="1" points="104 68 92 80 92 76 100 68 96 68 92 72 92 71 120 71 116 75 112 75"/><polyline fill="none" stroke="#000" stroke-width="1" points="108 87 100 87 100 83 108 83 112 79 96 79"/><polyline fill="none" stroke="#000" stroke-width="1" points="88 77 116 77"/><polyline fill="none" stroke="#000" stroke-width="1" points="108 97 100 97"/><polyline fill="none" stroke="#000" stroke-width="1" points="88 85 116 85 112 81 88 81"/><polyline fill="none" stroke="#000" stroke-width="1" points="88 73 120 73"/><polyline fill="none" stroke="#000" stroke-width="1" points="96 65 228 65 228 69 88 69"/><polyline fill="none" stroke="#000" stroke-width="1" points="80 93 76 93 76 97 84 97 84 101 80 101"/></svg>